# xmcd CD database file
#
# Track frame offsets:
#	150
#	13388
#	22911
#	36031
#	58947
#	74967
#	89568
#	105306
#	124468
#	139101
#	153663
#	168437
#	182255
#
# Disc length: 2814 seconds
#
# Revision: 0
# Processed by: cddbd v1.5.2PL0 Copyright (c) Steve Scherf et al.
# Submitted via: CDex 1.81
#
DISCID=b80afc0d
DTITLE=Jazztick - Como Joystick pero con Jazz
DYEAR=2016
DGENRE=Jazz
TTITLE0=Funkin' through the World 1/1 (Super Mario Bros)
TTITLE1=Super Bebop World (Super Mario World)
TTITLE2=Cuidao con la guagua! (Yoshi's Island)
TTITLE3=Funky Kong is drowning!!! (Donkey Kong Country)
TTITLE4=Still goes with everything (Street Fighter)
TTITLE5=Ken anda ahi? (Street Fighter)
TTITLE6=Abstinencia al casino (Sonic 2)
TTITLE7=The future hasn't refused to change (Chrono Trigger)
TTITLE8=A Link to the Jazz (The Legend of Zelda)
TTITLE9=Llovizna sobre Hyrule (Ocarina of Time)
TTITLE10=Lost Bossa (Ocarina of Time)
TTITLE11=Oe cacha! Karariko! (Ocarina of Time)
TTITLE12=El Gerudo tiene mucho tumbao (Ocarina of Time)
EXTD=YEAR: 2016
EXTT0=
EXTT1=
EXTT2=
EXTT3=
EXTT4=
EXTT5=
EXTT6=
EXTT7=
EXTT8=
EXTT9=
EXTT10=
EXTT11=
EXTT12=
PLAYORDER=
